<svg width="121" height="44" viewBox="0 0 121 44" fill="none" xmlns="http://www.w3.org/2000/svg" role="img">
  <title>Sparklink logo</title>
  <!-- Lightning symbol (unchanged) -->
  <path d="M0.0619184 21.0601L20.2432 4.00023L12.4475 34.7521L12.1408 23.8491L0.0619184 21.0601Z" fill="#4F39F6"/>
  <path d="M13.798 17.2924L27.9439 21.5243L7.23363 39.2052L7.23841 39.2095L13.798 17.2924Z" fill="#4F39F6"/>

  <!-- optional small accent (kept as in original) -->
  <path d="M43.904 28.28C42.8773 28.28 41.9627 28.0653 41.16 27.636C40.3573 27.188 39.7227 26.5813 39.256 25.816C38.808 25.0507 38.584 24.1827 38.584 23.212V19.348C38.584 18.3773 38.8173 17.5093 39.284 16.744C39.7507 15.9787 40.3853 15.3813 41.188 14.952C41.9907 14.504 42.896 14.28 43.904 14.28C45.1173 14.28 46.2093 14.5973 47.18 15.232C48.1693 15.848 48.944 16.688 49.504 17.752C50.0827 18.7973 50.372 19.9827 50.372 21.308C50.372 22.6147 50.0827 23.8 49.504 24.864C48.944 25.9093 48.1693 26.74 47.18 27.356C46.2093 27.972 45.1173 28.28 43.904 28.28Z" fill="none"/>

  <!-- Text: sparklink -->
  <text
    x="36"
    y="28"
    fill="#4F39F6"
    font-family="Inter, system-ui, -apple-system, 'Segoe UI', Roboto, Helvetica, Arial, sans-serif"
    font-size="16"
    font-weight="600"
    textLength="80"
    lengthAdjust="spacingAndGlyphs">
    sparklink
  </text>
</svg>