<?xml version="1.0" standalone="no"?>
<!DOCTYPE svg PUBLIC "-//W3C//DTD SVG 20010904//EN"
 "http://www.w3.org/TR/2001/REC-SVG-20010904/DTD/svg10.dtd">
<svg version="1.0" xmlns="http://www.w3.org/2000/svg"
 width="900.000000pt" height="257.000000pt" viewBox="0 0 900.000000 257.000000"
 preserveAspectRatio="xMidYMid meet">

<g transform="translate(0.000000,257.000000) scale(0.100000,-0.100000)"
fill="#000000" stroke="none">
<path d="M703 1719 c-293 -248 -533 -454 -533 -458 0 -4 138 -39 306 -78 168
-40 308 -74 311 -77 4 -3 -49 -189 -115 -413 -67 -223 -121 -408 -119 -409 1
-1 250 210 554 469 304 259 551 473 549 474 -1 1 -137 43 -301 93 -164 50
-300 92 -301 93 -2 2 39 169 91 372 52 204 94 373 92 377 -1 5 -242 -195 -534
-443z"/>
<path d="M6654 1976 c-28 -28 -34 -42 -34 -75 0 -56 22 -95 64 -115 47 -22 87
-20 127 7 58 39 74 98 44 157 -20 39 -63 60 -121 60 -39 0 -51 -5 -80 -34z"/>
<path d="M5320 1415 l0 -585 100 0 100 0 0 174 c0 96 4 177 9 181 13 8 23 -3
161 -189 l125 -166 107 0 c68 0 108 4 108 10 0 6 -68 104 -151 218 -83 113
-154 212 -156 219 -3 7 56 91 131 188 75 96 139 181 142 190 5 13 -9 15 -99
15 l-105 0 -123 -160 c-67 -88 -128 -160 -136 -160 -11 0 -13 60 -13 325 l0
325 -100 0 -100 0 0 -585z"/>
<path d="M6152 1493 c3 -463 5 -512 21 -548 39 -86 103 -125 207 -125 36 0 75
3 88 6 22 6 23 10 17 73 -10 97 -10 98 -49 93 -25 -3 -40 2 -55 17 -21 21 -21
27 -21 506 l0 485 -106 0 -105 0 3 -507z"/>
<path d="M8080 1415 l0 -585 100 0 100 0 0 174 c0 96 4 177 9 181 13 8 23 -3
161 -189 l125 -166 107 0 c61 0 108 4 108 9 0 6 -72 108 -159 227 l-159 218
62 80 c35 45 99 128 144 185 44 58 79 108 76 113 -3 4 -50 8 -104 8 l-99 0
-122 -160 c-67 -88 -128 -160 -135 -160 -12 0 -14 58 -14 325 l0 325 -100 0
-100 0 0 -585z"/>
<path d="M2133 1662 c-112 -40 -170 -106 -180 -205 -10 -104 34 -185 128 -232
26 -13 93 -36 150 -50 131 -32 154 -48 154 -105 0 -61 -34 -85 -118 -84 -71 0
-134 24 -189 73 -20 17 -40 31 -46 31 -5 0 -34 -27 -63 -61 l-52 -60 20 -27
c23 -31 112 -88 163 -103 19 -6 80 -13 136 -16 117 -6 182 8 256 57 115 76
137 269 42 364 -43 43 -90 62 -225 95 -99 24 -129 36 -146 56 -29 33 -29 57 1
91 20 24 32 28 88 32 67 4 109 -9 181 -55 l28 -18 54 60 55 60 -41 37 c-56 51
-115 69 -239 74 -85 4 -115 1 -157 -14z"/>
<path d="M3150 1671 c-46 -14 -88 -40 -121 -76 -18 -19 -37 -35 -41 -35 -4 0
-8 25 -8 55 l0 55 -105 0 -105 0 0 -590 0 -590 105 0 105 0 0 215 c0 118 4
215 8 215 5 0 17 -9 28 -21 44 -48 103 -73 189 -77 177 -9 291 72 345 247 25
81 28 268 4 356 -42 165 -155 256 -312 254 -37 0 -78 -4 -92 -8z m82 -171 c53
-15 103 -76 118 -143 18 -80 9 -212 -19 -270 -37 -77 -126 -113 -218 -88 -52
14 -108 74 -124 133 -15 55 -15 181 0 235 29 106 133 163 243 133z"/>
<path d="M3961 1664 c-68 -18 -161 -67 -195 -103 l-26 -27 46 -67 45 -68 37
32 c75 66 192 100 271 79 34 -9 45 -18 57 -45 17 -41 6 -76 -30 -100 -13 -9
-76 -27 -139 -40 -142 -29 -207 -56 -251 -105 -44 -49 -60 -99 -54 -174 6 -74
35 -134 83 -174 47 -38 96 -52 182 -52 88 0 158 32 199 92 25 36 30 38 39 23
22 -38 59 -76 86 -90 32 -17 144 -20 183 -5 24 9 25 13 20 62 -9 91 -11 96
-38 91 -13 -3 -33 0 -44 6 -19 10 -20 23 -24 248 -4 231 -5 240 -30 294 -30
66 -72 101 -147 123 -67 20 -197 20 -270 0z m247 -504 c-7 -123 -53 -180 -150
-187 -41 -3 -60 1 -85 16 -62 39 -63 144 -1 185 13 8 56 22 96 31 40 8 85 21
100 29 15 8 31 12 36 9 4 -3 6 -40 4 -83z"/>
<path d="M7457 1666 c-46 -17 -99 -57 -127 -96 -12 -16 -26 -30 -31 -30 -5 0
-9 29 -9 65 l0 66 -97 -3 -98 -3 0 -415 0 -415 102 -3 102 -3 3 273 c3 269 3
274 28 316 30 53 74 81 137 88 68 8 122 -13 147 -56 20 -33 21 -54 24 -327 l3
-293 100 0 100 0 -4 328 c-2 248 -7 337 -17 367 -21 59 -95 129 -152 143 -62
16 -164 14 -211 -2z"/>
<path d="M4660 1250 l0 -420 100 0 100 0 0 183 c0 307 21 406 97 450 33 19
105 25 159 13 l31 -7 18 91 c10 50 15 94 11 97 -10 10 -121 16 -161 9 -40 -8
-99 -55 -121 -97 -23 -46 -34 -34 -34 36 l0 65 -100 0 -100 0 0 -420z"/>
<path d="M6647 1664 c-4 -4 -7 -193 -7 -421 l0 -414 103 3 102 3 0 415 0 415
-95 3 c-53 1 -99 0 -103 -4z"/>
</g>
</svg>
